<svg width="879" height="130" viewBox="0 0 879 130" fill="none" xmlns="http://www.w3.org/2000/svg">
<rect x="25" y="30.5" width="853" height="99" rx="10.5" fill="#FCFCFD"/>
<rect x="25" y="30.5" width="853" height="99" rx="10.5" stroke="#F1F1F3"/>
<rect x="44.5" y="49" width="62" height="62" rx="6" fill="#FFF4E6"/>
<path fill-rule="evenodd" clip-rule="evenodd" d="M79.2049 65.2595C79.6317 65.4974 79.8411 65.9957 79.7126 66.4671L76.8911 76.8125H87.1875C87.6106 76.8125 87.9934 77.0635 88.162 77.4515C88.3306 77.8396 88.2529 78.2907 87.9643 78.6L73.0893 94.5375C72.7559 94.8947 72.2219 94.9784 71.7951 94.7405C71.3684 94.5026 71.1589 94.0043 71.2875 93.5329L74.1089 83.1875H63.8125C63.3894 83.1875 63.0067 82.9365 62.8381 82.5485C62.6694 82.1604 62.7471 81.7093 63.0358 81.4L77.9108 65.4625C78.2442 65.1054 78.7782 65.0216 79.2049 65.2595Z" fill="#262626"/>
<path d="M134.302 98.48C131.678 98.48 129.294 97.984 127.15 96.992C125.006 95.968 123.31 94.432 122.062 92.384C120.814 90.336 120.19 87.76 120.19 84.656V62.48H126.718V84.656C126.718 86.832 127.326 88.656 128.542 90.128C129.79 91.6 131.71 92.336 134.302 92.336C136.926 92.336 138.862 91.6 140.11 90.128C141.358 88.656 141.982 86.832 141.982 84.656V62.48H148.462V84.656C148.462 87.76 147.838 90.336 146.59 92.384C145.342 94.432 143.646 95.968 141.502 96.992C139.39 97.984 136.99 98.48 134.302 98.48ZM154.914 98V72.56H161.298V76.208H161.586C161.842 75.76 162.242 75.216 162.786 74.576C163.33 73.904 164.082 73.328 165.042 72.848C166.002 72.336 167.218 72.08 168.69 72.08C170.642 72.08 172.242 72.528 173.49 73.424C174.77 74.288 175.714 75.44 176.322 76.88C176.962 78.32 177.281 79.872 177.281 81.536V98H170.898V82.4C170.898 81.024 170.514 79.84 169.746 78.848C168.978 77.856 167.826 77.36 166.29 77.36C165.106 77.36 164.146 77.664 163.41 78.272C162.674 78.848 162.13 79.6 161.778 80.528C161.458 81.456 161.298 82.432 161.298 83.456V98H154.914ZM183.706 98L183.754 61.52H190.09V98H183.706ZM209.023 98.48C206.239 98.48 203.871 97.856 201.919 96.608C199.967 95.36 198.479 93.744 197.455 91.76C196.463 89.744 195.967 87.584 195.967 85.28C195.967 82.976 196.463 80.832 197.455 78.848C198.479 76.832 199.967 75.2 201.919 73.952C203.871 72.704 206.239 72.08 209.023 72.08C211.839 72.08 214.207 72.704 216.127 73.952C218.079 75.2 219.551 76.832 220.543 78.848C221.567 80.832 222.079 82.976 222.079 85.28C222.079 87.584 221.567 89.744 220.543 91.76C219.551 93.744 218.079 95.36 216.127 96.608C214.207 97.856 211.839 98.48 209.023 98.48ZM209.023 93.152C210.463 93.152 211.663 92.784 212.623 92.048C213.615 91.312 214.367 90.352 214.879 89.168C215.391 87.952 215.647 86.656 215.647 85.28C215.647 83.872 215.391 82.576 214.879 81.392C214.367 80.208 213.615 79.248 212.623 78.512C211.663 77.776 210.463 77.408 209.023 77.408C207.615 77.408 206.415 77.776 205.423 78.512C204.431 79.248 203.679 80.208 203.167 81.392C202.655 82.576 202.399 83.872 202.399 85.28C202.399 86.656 202.655 87.952 203.167 89.168C203.679 90.352 204.431 91.312 205.423 92.048C206.415 92.784 207.615 93.152 209.023 93.152ZM240.053 98.48C237.877 98.48 235.973 98.112 234.341 97.376C232.709 96.608 231.349 95.6 230.261 94.352C229.173 93.072 228.357 91.648 227.813 90.08C227.301 88.512 227.045 86.912 227.045 85.28C227.045 83.648 227.301 82.048 227.813 80.48C228.357 78.912 229.157 77.504 230.213 76.256C231.301 74.976 232.661 73.968 234.293 73.232C235.925 72.464 237.845 72.08 240.053 72.08C242.229 72.08 244.037 72.4 245.477 73.04C246.917 73.68 248.053 74.48 248.885 75.44C249.749 76.4 250.389 77.36 250.805 78.32C251.221 79.248 251.493 80.032 251.621 80.672C251.749 81.312 251.813 81.632 251.813 81.632H245.813C245.813 81.632 245.749 81.424 245.621 81.008C245.493 80.56 245.237 80.048 244.853 79.472C244.469 78.896 243.893 78.384 243.125 77.936C242.389 77.488 241.397 77.264 240.149 77.264C238.677 77.264 237.429 77.648 236.405 78.416C235.413 79.152 234.661 80.128 234.149 81.344C233.637 82.56 233.381 83.872 233.381 85.28C233.381 86.688 233.637 88 234.149 89.216C234.661 90.432 235.413 91.424 236.405 92.192C237.429 92.928 238.677 93.296 240.149 93.296C241.397 93.296 242.389 93.072 243.125 92.624C243.893 92.176 244.469 91.664 244.853 91.088C245.237 90.512 245.493 90.016 245.621 89.6C245.749 89.152 245.813 88.928 245.813 88.928H251.813C251.813 88.928 251.749 89.248 251.621 89.888C251.493 90.528 251.221 91.328 250.805 92.288C250.389 93.216 249.749 94.16 248.885 95.12C248.053 96.08 246.917 96.88 245.477 97.52C244.037 98.16 242.229 98.48 240.053 98.48ZM257.862 98V61.52H264.246V82.64L273.222 72.56H280.758L270.198 84.176L281.094 98H273.462L264.246 86.288V98H257.862Z" fill="#FF9500"/>
<path d="M307.084 98V85.664L294.604 62.48H301.708L310.3 79.04L318.892 62.48H326.044L313.564 85.664V98H307.084ZM337.836 98.48C335.052 98.48 332.684 97.856 330.732 96.608C328.78 95.36 327.292 93.744 326.268 91.76C325.276 89.744 324.78 87.584 324.78 85.28C324.78 82.976 325.276 80.832 326.268 78.848C327.292 76.832 328.78 75.2 330.732 73.952C332.684 72.704 335.052 72.08 337.836 72.08C340.652 72.08 343.02 72.704 344.94 73.952C346.892 75.2 348.364 76.832 349.356 78.848C350.38 80.832 350.892 82.976 350.892 85.28C350.892 87.584 350.38 89.744 349.356 91.76C348.364 93.744 346.892 95.36 344.94 96.608C343.02 97.856 340.652 98.48 337.836 98.48ZM337.836 93.152C339.276 93.152 340.476 92.784 341.436 92.048C342.428 91.312 343.18 90.352 343.692 89.168C344.204 87.952 344.46 86.656 344.46 85.28C344.46 83.872 344.204 82.576 343.692 81.392C343.18 80.208 342.428 79.248 341.436 78.512C340.476 77.776 339.276 77.408 337.836 77.408C336.428 77.408 335.228 77.776 334.236 78.512C333.244 79.248 332.492 80.208 331.98 81.392C331.468 82.576 331.212 83.872 331.212 85.28C331.212 86.656 331.468 87.952 331.98 89.168C332.492 90.352 333.244 91.312 334.236 92.048C335.228 92.784 336.428 93.152 337.836 93.152ZM364.54 98.48C361.884 98.48 359.868 97.664 358.492 96.032C357.148 94.4 356.476 92.304 356.476 89.744V72.56H362.812V88.688C362.812 90.064 363.18 91.168 363.916 92C364.652 92.8 365.692 93.2 367.036 93.2C368.22 93.2 369.18 92.896 369.916 92.288C370.652 91.68 371.18 90.896 371.5 89.936C371.852 88.976 372.028 87.984 372.028 86.96V72.56H378.412V98H372.028V94.352H371.74C371.42 94.928 370.956 95.536 370.348 96.176C369.772 96.816 369.004 97.36 368.044 97.808C367.116 98.256 365.948 98.48 364.54 98.48ZM384.367 98V72.56H390.703V76.064H390.943C391.391 75.072 392.127 74.16 393.151 73.328C394.175 72.496 395.711 72.08 397.759 72.08C398.399 72.08 398.927 72.128 399.343 72.224C399.759 72.288 399.967 72.32 399.967 72.32V78.512C399.967 78.512 399.727 78.48 399.247 78.416C398.799 78.352 398.239 78.32 397.567 78.32C395.327 78.32 393.631 78.944 392.479 80.192C391.327 81.44 390.751 83.456 390.751 86.24V98H384.367ZM431.91 98.48C429.03 98.48 426.502 97.968 424.326 96.944C422.182 95.888 420.374 94.496 418.902 92.768C417.462 91.008 416.374 89.056 415.638 86.912C414.934 84.736 414.582 82.512 414.582 80.24C414.582 77.968 414.934 75.744 415.638 73.568C416.374 71.392 417.462 69.44 418.902 67.712C420.374 65.952 422.182 64.56 424.326 63.536C426.502 62.512 429.03 62 431.91 62C434.31 62 436.374 62.304 438.102 62.912C439.83 63.52 441.27 64.304 442.422 65.264C443.574 66.224 444.486 67.248 445.158 68.336C445.862 69.424 446.39 70.448 446.742 71.408C447.094 72.368 447.318 73.152 447.414 73.76C447.542 74.368 447.606 74.672 447.606 74.672H441.126C441.126 74.672 441.062 74.448 440.934 74C440.838 73.552 440.614 72.992 440.262 72.32C439.942 71.616 439.446 70.928 438.774 70.256C438.102 69.584 437.206 69.024 436.086 68.576C434.998 68.128 433.638 67.904 432.006 67.904C430.214 67.904 428.646 68.256 427.302 68.96C425.958 69.632 424.838 70.56 423.942 71.744C423.046 72.928 422.374 74.256 421.926 75.728C421.51 77.2 421.302 78.704 421.302 80.24C421.302 81.776 421.51 83.28 421.926 84.752C422.374 86.192 423.046 87.504 423.942 88.688C424.838 89.872 425.958 90.816 427.302 91.52C428.646 92.224 430.214 92.576 432.006 92.576C433.638 92.576 434.998 92.352 436.086 91.904C437.206 91.424 438.102 90.848 438.774 90.176C439.446 89.504 439.942 88.832 440.262 88.16C440.614 87.488 440.838 86.928 440.934 86.48C441.062 86 441.126 85.76 441.126 85.76H447.606C447.606 85.76 447.542 86.064 447.414 86.672C447.318 87.28 447.094 88.08 446.742 89.072C446.39 90.032 445.862 91.056 445.158 92.144C444.486 93.2 443.574 94.224 442.422 95.216C441.27 96.176 439.83 96.96 438.102 97.568C436.374 98.176 434.31 98.48 431.91 98.48ZM452.757 98V72.56H459.093V76.064H459.333C459.781 75.072 460.517 74.16 461.541 73.328C462.565 72.496 464.101 72.08 466.149 72.08C466.789 72.08 467.317 72.128 467.733 72.224C468.149 72.288 468.357 72.32 468.357 72.32V78.512C468.357 78.512 468.117 78.48 467.637 78.416C467.189 78.352 466.629 78.32 465.957 78.32C463.717 78.32 462.021 78.944 460.869 80.192C459.717 81.44 459.141 83.456 459.141 86.24V98H452.757ZM483.655 98.48C481.479 98.48 479.591 98.112 477.991 97.376C476.423 96.608 475.111 95.6 474.055 94.352C473.031 93.072 472.263 91.648 471.751 90.08C471.239 88.512 470.983 86.912 470.983 85.28C470.983 83.648 471.223 82.064 471.703 80.528C472.215 78.96 472.967 77.536 473.959 76.256C474.983 74.976 476.279 73.968 477.847 73.232C479.415 72.464 481.271 72.08 483.415 72.08C485.719 72.08 487.751 72.592 489.511 73.616C491.271 74.64 492.647 76.144 493.639 78.128C494.631 80.08 495.127 82.512 495.127 85.424V87.056H477.415C477.511 88.784 478.103 90.288 479.191 91.568C480.279 92.816 481.767 93.44 483.655 93.44C484.743 93.44 485.639 93.264 486.343 92.912C487.047 92.56 487.591 92.16 487.975 91.712C488.359 91.232 488.631 90.832 488.791 90.512C488.951 90.16 489.031 89.984 489.031 89.984H494.935C494.935 89.984 494.855 90.272 494.695 90.848C494.535 91.392 494.231 92.096 493.783 92.96C493.367 93.792 492.743 94.64 491.911 95.504C491.079 96.336 489.991 97.04 488.647 97.616C487.303 98.192 485.639 98.48 483.655 98.48ZM477.415 82.88H488.983C488.887 80.896 488.295 79.424 487.207 78.464C486.119 77.504 484.839 77.024 483.367 77.024C481.735 77.024 480.375 77.552 479.287 78.608C478.199 79.632 477.575 81.056 477.415 82.88ZM511.372 72.08C513.004 72.08 514.348 72.352 515.404 72.896C516.46 73.408 517.292 73.984 517.9 74.624C518.508 75.232 518.924 75.728 519.148 76.112H519.436V72.56H525.82V98H519.436V94.448H519.148C518.924 94.832 518.508 95.344 517.9 95.984C517.292 96.624 516.46 97.2 515.404 97.712C514.348 98.224 513.004 98.48 511.372 98.48C509.484 98.48 507.836 98.112 506.428 97.376C505.02 96.608 503.836 95.6 502.876 94.352C501.948 93.072 501.244 91.648 500.764 90.08C500.316 88.512 500.092 86.912 500.092 85.28C500.092 83.648 500.316 82.048 500.764 80.48C501.244 78.912 501.948 77.504 502.876 76.256C503.836 74.976 505.02 73.968 506.428 73.232C507.836 72.464 509.484 72.08 511.372 72.08ZM513.052 77.312C511.612 77.312 510.396 77.712 509.404 78.512C508.444 79.28 507.724 80.272 507.244 81.488C506.764 82.704 506.524 83.968 506.524 85.28C506.524 86.592 506.764 87.856 507.244 89.072C507.724 90.288 508.444 91.296 509.404 92.096C510.396 92.864 511.612 93.248 513.052 93.248C514.492 93.248 515.692 92.864 516.652 92.096C517.612 91.296 518.332 90.288 518.812 89.072C519.292 87.856 519.532 86.592 519.532 85.28C519.532 83.968 519.292 82.704 518.812 81.488C518.332 80.272 517.612 79.28 516.652 78.512C515.692 77.712 514.492 77.312 513.052 77.312ZM542.698 98.48C540.97 98.48 539.546 98.224 538.426 97.712C537.306 97.2 536.426 96.528 535.786 95.696C535.178 94.864 534.746 93.952 534.49 92.96C534.234 91.968 534.106 90.992 534.106 90.032V77.696H529.738V72.56H534.106V66.224H540.49V72.56H546.202V77.696H540.49V89.888C540.49 92.16 541.77 93.296 544.33 93.296C544.938 93.296 545.498 93.264 546.01 93.2C546.554 93.104 546.826 93.056 546.826 93.056V98.048C546.826 98.048 546.41 98.112 545.578 98.24C544.778 98.4 543.818 98.48 542.698 98.48ZM555.879 68.624C554.759 68.624 553.831 68.256 553.095 67.52C552.391 66.784 552.039 65.904 552.039 64.88C552.039 63.856 552.391 62.976 553.095 62.24C553.831 61.504 554.759 61.136 555.879 61.136C556.999 61.136 557.927 61.504 558.663 62.24C559.399 62.976 559.767 63.856 559.767 64.88C559.767 65.904 559.399 66.784 558.663 67.52C557.927 68.256 556.999 68.624 555.879 68.624ZM552.711 98V72.56H559.095V98H552.711ZM573.502 98L564.046 72.56H570.526L576.91 90.704L583.198 72.56H589.678L580.174 98H573.502ZM605.061 98.48C602.885 98.48 600.997 98.112 599.397 97.376C597.829 96.608 596.517 95.6 595.461 94.352C594.437 93.072 593.669 91.648 593.157 90.08C592.645 88.512 592.389 86.912 592.389 85.28C592.389 83.648 592.629 82.064 593.109 80.528C593.621 78.96 594.373 77.536 595.365 76.256C596.389 74.976 597.685 73.968 599.253 73.232C600.821 72.464 602.677 72.08 604.821 72.08C607.125 72.08 609.157 72.592 610.917 73.616C612.677 74.64 614.053 76.144 615.045 78.128C616.037 80.08 616.533 82.512 616.533 85.424V87.056H598.821C598.917 88.784 599.509 90.288 600.597 91.568C601.685 92.816 603.173 93.44 605.061 93.44C606.149 93.44 607.045 93.264 607.749 92.912C608.453 92.56 608.997 92.16 609.381 91.712C609.765 91.232 610.037 90.832 610.197 90.512C610.357 90.16 610.437 89.984 610.437 89.984H616.341C616.341 89.984 616.261 90.272 616.101 90.848C615.941 91.392 615.637 92.096 615.189 92.96C614.773 93.792 614.149 94.64 613.317 95.504C612.485 96.336 611.397 97.04 610.053 97.616C608.709 98.192 607.045 98.48 605.061 98.48ZM598.821 82.88H610.389C610.293 80.896 609.701 79.424 608.613 78.464C607.525 77.504 606.245 77.024 604.773 77.024C603.141 77.024 601.781 77.552 600.693 78.608C599.605 79.632 598.981 81.056 598.821 82.88ZM633.659 98V62.48H647.675C650.523 62.48 652.891 63.056 654.779 64.208C656.667 65.328 658.075 66.8 659.003 68.624C659.963 70.416 660.443 72.288 660.443 74.24C660.443 76.192 659.963 78.08 659.003 79.904C658.075 81.696 656.667 83.168 654.779 84.32C652.891 85.472 650.523 86.048 647.675 86.048H640.187V98H633.659ZM647.627 68.144H640.187V80.384H647.627C649.035 80.384 650.203 80.096 651.131 79.52C652.059 78.912 652.747 78.144 653.195 77.216C653.675 76.256 653.915 75.28 653.915 74.288C653.915 73.264 653.675 72.288 653.195 71.36C652.747 70.432 652.059 69.664 651.131 69.056C650.203 68.448 649.035 68.144 647.627 68.144ZM676.695 98.48C673.911 98.48 671.543 97.856 669.591 96.608C667.639 95.36 666.151 93.744 665.127 91.76C664.135 89.744 663.639 87.584 663.639 85.28C663.639 82.976 664.135 80.832 665.127 78.848C666.151 76.832 667.639 75.2 669.591 73.952C671.543 72.704 673.911 72.08 676.695 72.08C679.511 72.08 681.879 72.704 683.799 73.952C685.751 75.2 687.223 76.832 688.215 78.848C689.239 80.832 689.751 82.976 689.751 85.28C689.751 87.584 689.239 89.744 688.215 91.76C687.223 93.744 685.751 95.36 683.799 96.608C681.879 97.856 679.511 98.48 676.695 98.48ZM676.695 93.152C678.135 93.152 679.335 92.784 680.295 92.048C681.287 91.312 682.039 90.352 682.551 89.168C683.063 87.952 683.319 86.656 683.319 85.28C683.319 83.872 683.063 82.576 682.551 81.392C682.039 80.208 681.287 79.248 680.295 78.512C679.335 77.776 678.135 77.408 676.695 77.408C675.287 77.408 674.087 77.776 673.095 78.512C672.103 79.248 671.351 80.208 670.839 81.392C670.327 82.576 670.071 83.872 670.071 85.28C670.071 86.656 670.327 87.952 670.839 89.168C671.351 90.352 672.103 91.312 673.095 92.048C674.087 92.784 675.287 93.152 676.695 93.152ZM706.339 98.48C704.611 98.48 703.187 98.224 702.067 97.712C700.947 97.2 700.067 96.528 699.427 95.696C698.819 94.864 698.387 93.952 698.131 92.96C697.875 91.968 697.747 90.992 697.747 90.032V77.696H693.379V72.56H697.747V66.224H704.131V72.56H709.843V77.696H704.131V89.888C704.131 92.16 705.411 93.296 707.971 93.296C708.579 93.296 709.139 93.264 709.651 93.2C710.195 93.104 710.467 93.056 710.467 93.056V98.048C710.467 98.048 710.051 98.112 709.219 98.24C708.419 98.4 707.459 98.48 706.339 98.48ZM727.405 98.48C725.229 98.48 723.341 98.112 721.741 97.376C720.173 96.608 718.861 95.6 717.805 94.352C716.781 93.072 716.013 91.648 715.501 90.08C714.989 88.512 714.733 86.912 714.733 85.28C714.733 83.648 714.973 82.064 715.453 80.528C715.965 78.96 716.717 77.536 717.709 76.256C718.733 74.976 720.029 73.968 721.597 73.232C723.165 72.464 725.021 72.08 727.165 72.08C729.469 72.08 731.501 72.592 733.261 73.616C735.021 74.64 736.397 76.144 737.389 78.128C738.381 80.08 738.877 82.512 738.877 85.424V87.056H721.165C721.261 88.784 721.853 90.288 722.941 91.568C724.029 92.816 725.517 93.44 727.405 93.44C728.493 93.44 729.389 93.264 730.093 92.912C730.797 92.56 731.341 92.16 731.725 91.712C732.109 91.232 732.381 90.832 732.541 90.512C732.701 90.16 732.781 89.984 732.781 89.984H738.685C738.685 89.984 738.605 90.272 738.445 90.848C738.285 91.392 737.981 92.096 737.533 92.96C737.117 93.792 736.493 94.64 735.661 95.504C734.829 96.336 733.741 97.04 732.397 97.616C731.053 98.192 729.389 98.48 727.405 98.48ZM721.165 82.88H732.733C732.637 80.896 732.045 79.424 730.957 78.464C729.869 77.504 728.589 77.024 727.117 77.024C725.485 77.024 724.125 77.552 723.037 78.608C721.949 79.632 721.325 81.056 721.165 82.88ZM744.273 98V72.56H750.657V76.208H750.945C751.201 75.76 751.601 75.216 752.145 74.576C752.689 73.904 753.441 73.328 754.401 72.848C755.361 72.336 756.577 72.08 758.049 72.08C760.001 72.08 761.601 72.528 762.849 73.424C764.129 74.288 765.073 75.44 765.681 76.88C766.321 78.32 766.641 79.872 766.641 81.536V98H760.257V82.4C760.257 81.024 759.873 79.84 759.105 78.848C758.337 77.856 757.185 77.36 755.649 77.36C754.465 77.36 753.505 77.664 752.769 78.272C752.033 78.848 751.489 79.6 751.137 80.528C750.817 81.456 750.657 82.432 750.657 83.456V98H744.273ZM783.495 98.48C781.767 98.48 780.343 98.224 779.223 97.712C778.103 97.2 777.223 96.528 776.583 95.696C775.975 94.864 775.543 93.952 775.287 92.96C775.031 91.968 774.903 90.992 774.903 90.032V77.696H770.535V72.56H774.903V66.224H781.287V72.56H786.999V77.696H781.287V89.888C781.287 92.16 782.567 93.296 785.127 93.296C785.735 93.296 786.295 93.264 786.807 93.2C787.351 93.104 787.623 93.056 787.623 93.056V98.048C787.623 98.048 787.207 98.112 786.375 98.24C785.575 98.4 784.615 98.48 783.495 98.48ZM796.675 68.624C795.555 68.624 794.627 68.256 793.891 67.52C793.187 66.784 792.835 65.904 792.835 64.88C792.835 63.856 793.187 62.976 793.891 62.24C794.627 61.504 795.555 61.136 796.675 61.136C797.795 61.136 798.723 61.504 799.459 62.24C800.195 62.976 800.563 63.856 800.563 64.88C800.563 65.904 800.195 66.784 799.459 67.52C798.723 68.256 797.795 68.624 796.675 68.624ZM793.507 98V72.56H799.891V98H793.507ZM817.419 72.08C819.051 72.08 820.395 72.352 821.451 72.896C822.507 73.408 823.339 73.984 823.947 74.624C824.555 75.232 824.971 75.728 825.195 76.112H825.483V72.56H831.867V98H825.483V94.448H825.195C824.971 94.832 824.555 95.344 823.947 95.984C823.339 96.624 822.507 97.2 821.451 97.712C820.395 98.224 819.051 98.48 817.419 98.48C815.531 98.48 813.883 98.112 812.475 97.376C811.067 96.608 809.883 95.6 808.923 94.352C807.995 93.072 807.291 91.648 806.811 90.08C806.363 88.512 806.139 86.912 806.139 85.28C806.139 83.648 806.363 82.048 806.811 80.48C807.291 78.912 807.995 77.504 808.923 76.256C809.883 74.976 811.067 73.968 812.475 73.232C813.883 72.464 815.531 72.08 817.419 72.08ZM819.099 77.312C817.659 77.312 816.443 77.712 815.451 78.512C814.491 79.28 813.771 80.272 813.291 81.488C812.811 82.704 812.571 83.968 812.571 85.28C812.571 86.592 812.811 87.856 813.291 89.072C813.771 90.288 814.491 91.296 815.451 92.096C816.443 92.864 817.659 93.248 819.099 93.248C820.539 93.248 821.739 92.864 822.699 92.096C823.659 91.296 824.379 90.288 824.859 89.072C825.339 87.856 825.579 86.592 825.579 85.28C825.579 83.968 825.339 82.704 824.859 81.488C824.379 80.272 823.659 79.28 822.699 78.512C821.739 77.712 820.539 77.312 819.099 77.312ZM838.409 98L838.457 61.52H844.793V98H838.409Z" fill="#1A1A1A"/>
<path fill-rule="evenodd" clip-rule="evenodd" d="M13.5489 40.1274C9.82492 39.0757 5.92609 38.5452 2.14397 38.0592C1.32936 37.9573 0.573044 38.5259 0.514858 39.3269C0.398485 40.1286 0.980691 40.8617 1.73712 40.9636C5.40286 41.4314 9.18465 41.9321 12.734 42.9445C13.4904 43.1641 14.3054 42.7121 14.5381 41.9345C14.7709 41.1574 14.3053 40.3476 13.5489 40.1274Z" fill="#262626"/>
<path fill-rule="evenodd" clip-rule="evenodd" d="M24.8365 25.2172C18.8433 19.0623 12.0937 13.6997 6.21685 7.37974C5.69318 6.78949 4.76219 6.75787 4.18033 7.30888C3.59846 7.86048 3.5405 8.78802 4.12237 9.37826C9.9992 15.7164 16.7488 21.0966 22.742 27.2696C23.3239 27.8458 24.2547 27.854 24.8365 27.2872C25.3602 26.7209 25.4184 25.7934 24.8365 25.2172Z" fill="#262626"/>
<path fill-rule="evenodd" clip-rule="evenodd" d="M36.0672 1.54341C36.2417 5.06616 36.4159 8.58891 36.5905 12.1123C36.5905 12.9192 37.2891 13.5422 38.1037 13.503C38.9183 13.4631 39.4998 12.7763 39.4998 11.9688C39.3253 8.44018 39.151 4.91216 38.9765 1.38413C38.9183 0.577224 38.2199 -0.0417174 37.4053 0.00219986C36.6489 0.0461172 36.009 0.737085 36.0672 1.54341Z" fill="#262626"/>
</svg>
